<svg xmlns="http://www.w3.org/2000/svg" xmlns:xlink="http://www.w3.org/1999/xlink" width="500" zoomAndPan="magnify" viewBox="0 0 375 112.499997" height="150" preserveAspectRatio="xMidYMid meet" version="1.0"><defs><g/><clipPath id="f8c1892fbe"><path d="M 95.382812 38.925781 L 138.683594 38.925781 L 138.683594 74.683594 L 95.382812 74.683594 Z M 95.382812 38.925781 " clip-rule="nonzero"/></clipPath><clipPath id="bf50d07610"><path d="M 106.085938 38.925781 L 127.957031 38.925781 C 133.871094 38.925781 138.664062 43.71875 138.664062 49.632812 L 138.664062 63.976562 C 138.664062 69.890625 133.871094 74.683594 127.957031 74.683594 L 106.085938 74.683594 C 100.175781 74.683594 95.382812 69.890625 95.382812 63.976562 L 95.382812 49.632812 C 95.382812 43.71875 100.175781 38.925781 106.085938 38.925781 Z M 106.085938 38.925781 " clip-rule="nonzero"/></clipPath><clipPath id="c87bd5cb05"><path d="M 98.191406 43.289062 L 106 43.289062 L 106 66.433594 L 98.191406 66.433594 Z M 98.191406 43.289062 " clip-rule="nonzero"/></clipPath><clipPath id="09521af970"><path d="M 128 43.289062 L 135.097656 43.289062 L 135.097656 66.433594 L 128 66.433594 Z M 128 43.289062 " clip-rule="nonzero"/></clipPath></defs><g clip-path="url(#f8c1892fbe)"><g clip-path="url(#bf50d07610)"><path fill="#00b8e9" d="M 95.382812 38.925781 L 138.683594 38.925781 L 138.683594 74.683594 L 95.382812 74.683594 Z M 95.382812 38.925781 " fill-opacity="1" fill-rule="nonzero"/></g></g><g clip-path="url(#c87bd5cb05)"><path fill="#efefef" d="M 104.644531 45.867188 L 105.289062 45.867188 L 105.289062 43.289062 L 104.644531 43.289062 C 102.507812 43.289062 100.777344 45.019531 100.777344 47.15625 L 100.777344 51.667969 C 100.777344 52.074219 100.585938 52.457031 100.261719 52.699219 L 98.714844 53.859375 C 98.402344 54.089844 98.214844 54.449219 98.199219 54.835938 C 98.183594 55.222656 98.339844 55.597656 98.628906 55.855469 L 100.34375 57.375 C 100.617188 57.621094 100.777344 57.972656 100.777344 58.339844 L 100.777344 62.625 C 100.777344 64.761719 102.507812 66.492188 104.644531 66.492188 L 105.289062 66.492188 L 105.289062 63.914062 L 104.644531 63.914062 C 103.933594 63.914062 103.355469 63.339844 103.355469 62.625 L 103.355469 58.339844 C 103.355469 57.234375 102.882812 56.183594 102.054688 55.449219 L 101.523438 54.976562 L 101.808594 54.761719 C 102.78125 54.03125 103.355469 52.886719 103.355469 51.667969 L 103.355469 47.15625 C 103.355469 46.445312 103.933594 45.867188 104.644531 45.867188 Z M 104.644531 45.867188 " fill-opacity="1" fill-rule="evenodd"/></g><g clip-path="url(#09521af970)"><path fill="#efefef" d="M 128.785156 45.867188 L 128.140625 45.867188 L 128.140625 43.289062 L 128.785156 43.289062 C 130.921875 43.289062 132.652344 45.019531 132.652344 47.15625 L 132.652344 51.667969 C 132.652344 52.074219 132.84375 52.457031 133.167969 52.699219 L 134.714844 53.859375 C 135.023438 54.089844 135.210938 54.449219 135.230469 54.835938 C 135.246094 55.222656 135.085938 55.597656 134.796875 55.855469 L 133.085938 57.375 C 132.808594 57.621094 132.652344 57.972656 132.652344 58.339844 L 132.652344 62.625 C 132.652344 64.761719 130.921875 66.492188 128.785156 66.492188 L 128.140625 66.492188 L 128.140625 63.914062 L 128.785156 63.914062 C 129.496094 63.914062 130.074219 63.339844 130.074219 62.625 L 130.074219 58.339844 C 130.074219 57.234375 130.546875 56.183594 131.371094 55.449219 L 131.90625 54.976562 L 131.621094 54.761719 C 130.644531 54.03125 130.074219 52.886719 130.074219 51.667969 L 130.074219 47.15625 C 130.074219 46.445312 129.496094 45.867188 128.785156 45.867188 Z M 128.785156 45.867188 " fill-opacity="1" fill-rule="evenodd"/></g><g fill="#292929" fill-opacity="1"><g transform="translate(149.30638, 66.893399)"><g><path d="M 24.921875 -20.09375 L 19.359375 0.0625 L 15.953125 0.0625 C 15.742188 -0.632812 15.40625 -1.8125 14.9375 -3.46875 C 14.476562 -5.125 14.082031 -6.566406 13.75 -7.796875 C 13.425781 -9.035156 13.125 -10.222656 12.84375 -11.359375 C 12.59375 -12.460938 12.410156 -13.488281 12.296875 -14.4375 C 12.054688 -12.832031 11.742188 -11.320312 11.359375 -9.90625 L 8.640625 0.0625 L 5.140625 0.0625 L -0.390625 -20.09375 L 3.40625 -20.09375 C 5.320312 -13.132812 6.382812 -9.265625 6.59375 -8.484375 C 6.832031 -7.492188 7.039062 -6.332031 7.21875 -5 C 7.382812 -6.1875 7.707031 -7.6875 8.1875 -9.5 L 11.0625 -20.09375 L 14.25 -20.09375 C 14.46875 -19.289062 14.8125 -18.078125 15.28125 -16.453125 C 15.75 -14.835938 16.15625 -13.382812 16.5 -12.09375 C 16.84375 -10.800781 17.160156 -9.578125 17.453125 -8.421875 C 17.679688 -7.523438 17.875 -6.382812 18.03125 -5 C 18.25 -6.570312 18.5625 -8.070312 18.96875 -9.5 L 21.875 -20.09375 Z M 24.921875 -20.09375 "/></g></g></g><g fill="#292929" fill-opacity="1"><g transform="translate(173.405619, 66.893399)"><g><path d="M 14.0625 0 L 1.84375 0 L 1.84375 -18.421875 L 1.421875 -20.09375 L 14.0625 -20.09375 L 14.0625 -17.375 L 5.59375 -17.375 L 5.59375 -11.6875 L 12.078125 -11.6875 L 12.078125 -8.984375 L 5.59375 -8.984375 L 5.59375 -2.71875 L 14.0625 -2.71875 Z M 14.0625 0 "/></g></g></g><g fill="#292929" fill-opacity="1"><g transform="translate(188.03531, 66.893399)"><g><path d="M 16.09375 -5.578125 C 16.09375 -4.273438 15.722656 -3.1875 14.984375 -2.3125 C 14.253906 -1.445312 13.367188 -0.84375 12.328125 -0.5 C 11.285156 -0.164062 10.132812 0 8.875 0 L 1.84375 0 L 1.84375 -18.421875 C 1.84375 -18.441406 1.804688 -18.578125 1.734375 -18.828125 C 1.671875 -19.085938 1.609375 -19.351562 1.546875 -19.625 C 1.484375 -19.90625 1.453125 -20.0625 1.453125 -20.09375 L 8.59375 -20.09375 C 9.457031 -20.09375 10.25 -20.023438 10.96875 -19.890625 C 11.6875 -19.753906 12.375 -19.519531 13.03125 -19.1875 C 13.695312 -18.863281 14.21875 -18.375 14.59375 -17.71875 C 14.96875 -17.070312 15.15625 -16.300781 15.15625 -15.40625 C 15.15625 -14.25 14.757812 -13.257812 13.96875 -12.4375 C 13.1875 -11.613281 12.21875 -11.117188 11.0625 -10.953125 C 12.46875 -10.710938 13.65625 -10.101562 14.625 -9.125 C 15.601562 -8.144531 16.09375 -6.960938 16.09375 -5.578125 Z M 11.171875 -14.875 C 11.171875 -15.71875 10.914062 -16.34375 10.40625 -16.75 C 9.90625 -17.164062 9.226562 -17.375 8.375 -17.375 L 5.625 -17.375 L 5.625 -12.25 L 8.453125 -12.25 C 9.242188 -12.25 9.894531 -12.488281 10.40625 -12.96875 C 10.914062 -13.457031 11.171875 -14.09375 11.171875 -14.875 Z M 12.109375 -6.015625 C 12.109375 -7.160156 11.6875 -8.03125 10.84375 -8.625 C 10 -9.226562 8.972656 -9.53125 7.765625 -9.53125 L 5.625 -9.53125 L 5.625 -2.71875 L 8.625 -2.71875 C 9.664062 -2.71875 10.503906 -3.007812 11.140625 -3.59375 C 11.785156 -4.175781 12.109375 -4.984375 12.109375 -6.015625 Z M 12.109375 -6.015625 "/></g></g></g><g fill="#292929" fill-opacity="1"><g transform="translate(204.449122, 66.893399)"><g><path d="M 16.796875 -1.703125 C 15.648438 -0.984375 14.578125 -0.460938 13.578125 -0.140625 C 12.578125 0.171875 11.4375 0.328125 10.15625 0.328125 C 7.0625 0.328125 4.6875 -0.640625 3.03125 -2.578125 C 1.375 -4.515625 0.546875 -7.050781 0.546875 -10.1875 C 0.546875 -13.164062 1.414062 -15.625 3.15625 -17.5625 C 4.894531 -19.507812 7.238281 -20.484375 10.1875 -20.484375 C 11.320312 -20.484375 12.507812 -20.316406 13.75 -19.984375 C 15 -19.648438 15.976562 -19.164062 16.6875 -18.53125 L 14.71875 -16 C 14.21875 -16.550781 13.554688 -16.988281 12.734375 -17.3125 C 11.910156 -17.644531 11.109375 -17.8125 10.328125 -17.8125 C 8.972656 -17.8125 7.847656 -17.425781 6.953125 -16.65625 C 6.066406 -15.894531 5.457031 -14.972656 5.125 -13.890625 C 4.800781 -12.804688 4.640625 -11.597656 4.640625 -10.265625 C 4.640625 -9.390625 4.753906 -8.5 4.984375 -7.59375 C 5.210938 -6.6875 5.546875 -5.820312 5.984375 -5 C 6.421875 -4.1875 7.023438 -3.523438 7.796875 -3.015625 C 8.566406 -2.503906 9.425781 -2.25 10.375 -2.25 C 12.082031 -2.25 13.648438 -2.9375 15.078125 -4.3125 Z M 16.796875 -1.703125 "/></g></g></g><g fill="#292929" fill-opacity="1"><g transform="translate(221.137414, 66.893399)"><g><path d="M 16.9375 0 L 12.65625 0 L 7.078125 -8.953125 L 5.578125 -8.953125 L 5.578125 0 L 1.8125 0 L 1.8125 -18.421875 C 1.8125 -18.453125 1.742188 -18.71875 1.609375 -19.21875 C 1.484375 -19.726562 1.414062 -20.019531 1.40625 -20.09375 L 8.296875 -20.09375 C 10.328125 -20.09375 11.960938 -19.660156 13.203125 -18.796875 C 14.453125 -17.941406 15.078125 -16.546875 15.078125 -14.609375 C 15.078125 -13.472656 14.644531 -12.410156 13.78125 -11.421875 C 12.914062 -10.429688 11.921875 -9.800781 10.796875 -9.53125 Z M 11.09375 -14.625 C 11.09375 -15.488281 10.789062 -16.15625 10.1875 -16.625 C 9.582031 -17.101562 8.832031 -17.34375 7.9375 -17.34375 L 5.578125 -17.34375 L 5.578125 -11.640625 L 7.328125 -11.640625 C 9.835938 -11.640625 11.09375 -12.632812 11.09375 -14.625 Z M 11.09375 -14.625 "/></g></g></g><g fill="#292929" fill-opacity="1"><g transform="translate(236.919924, 66.893399)"><g><path d="M 17.265625 0 L 13.203125 0 L 11.234375 -5.765625 L 5.296875 -5.765625 L 3.234375 0 L 0.0625 0 L 7.171875 -20.09375 L 10.15625 -20.09375 Z M 10.328125 -8.453125 C 9.441406 -11.140625 8.742188 -13.425781 8.234375 -15.3125 C 7.609375 -13.03125 6.941406 -10.742188 6.234375 -8.453125 Z M 10.328125 -8.453125 "/></g></g></g><g fill="#292929" fill-opacity="1"><g transform="translate(253.800347, 66.893399)"><g><path d="M 13.234375 -17.375 L 5.65625 -17.375 L 5.65625 -11.6875 L 11.5 -11.6875 L 11.5 -8.984375 L 5.65625 -8.984375 L 5.65625 0 L 1.84375 0 L 1.84375 -18.421875 C 1.84375 -18.441406 1.804688 -18.578125 1.734375 -18.828125 C 1.671875 -19.085938 1.609375 -19.351562 1.546875 -19.625 C 1.484375 -19.90625 1.453125 -20.0625 1.453125 -20.09375 L 13.234375 -20.09375 Z M 13.234375 -17.375 "/></g></g></g><g fill="#292929" fill-opacity="1"><g transform="translate(267.359569, 66.893399)"><g><path d="M 15.515625 -17.375 L 9.859375 -17.375 L 9.859375 0 L 5.9375 0 L 5.9375 -17.375 L 0.359375 -17.375 L 0.359375 -20.09375 L 15.515625 -20.09375 Z M 15.515625 -17.375 "/></g></g></g><g fill="#ffffff" fill-opacity="1"><g transform="translate(106.028946, 63.131168)"><g><path d="M 20.9375 -16.875 L 16.265625 0.046875 L 13.40625 0.046875 C 13.226562 -0.535156 12.941406 -1.519531 12.546875 -2.90625 C 12.160156 -4.300781 11.828125 -5.519531 11.546875 -6.5625 C 11.273438 -7.601562 11.023438 -8.597656 10.796875 -9.546875 C 10.578125 -10.472656 10.421875 -11.332031 10.328125 -12.125 C 10.128906 -10.769531 9.867188 -9.503906 9.546875 -8.328125 L 7.265625 0.046875 L 4.3125 0.046875 L -0.328125 -16.875 L 2.859375 -16.875 C 4.472656 -11.039062 5.363281 -7.789062 5.53125 -7.125 C 5.726562 -6.289062 5.90625 -5.316406 6.0625 -4.203125 C 6.195312 -5.203125 6.46875 -6.460938 6.875 -7.984375 L 9.296875 -16.875 L 11.96875 -16.875 C 12.15625 -16.195312 12.441406 -15.175781 12.828125 -13.8125 C 13.222656 -12.457031 13.566406 -11.238281 13.859375 -10.15625 C 14.148438 -9.070312 14.421875 -8.046875 14.671875 -7.078125 C 14.847656 -6.328125 15.007812 -5.367188 15.15625 -4.203125 C 15.332031 -5.523438 15.59375 -6.785156 15.9375 -7.984375 L 18.375 -16.875 Z M 20.9375 -16.875 "/></g></g></g></svg>